<?xml version="1.0" encoding="UTF-8"?>
<svg width="19px" height="19px" viewBox="0 0 19 19" version="1.1" xmlns="http://www.w3.org/2000/svg" xmlns:xlink="http://www.w3.org/1999/xlink">
    <!-- Generator: sketchtool 41.2 (35397) - http://www.bohemiancoding.com/sketch -->
    <title>5AEFE4DF-89E7-4749-B86C-C6D4968CF938</title>
    <desc>Created with sketchtool.</desc>
    <defs></defs>
    <g id="Symbols" stroke="none" stroke-width="1" fill="none" fill-rule="evenodd">
        <g id="list-/-pest" transform="translate(-25.000000, -7.000000)" fill="#242423">
            <g id="Group-4" transform="translate(25.000000, 7.000000)">
                <g id="icon-/-pest">
                    <g id="icon_pest">
                        <path d="M3.31146575,9.85579452 C2.43590411,9.85579452 1.60536986,9.70952055 1.01767123,9.29047945 C0.439342466,8.87768493 0.146273973,8.26369863 0.146273973,7.46673973 C0.146273973,6.517 0.599931507,6.02091781 0.980191781,5.77287671 C2.90153425,4.51210959 7.51645205,6.46208219 8.0359589,6.68773973 C8.24131507,6.77727397 8.33579452,7.01724658 8.24652055,7.22260274 C8.1569863,7.4279589 7.9170137,7.52347945 7.71165753,7.43316438 C6.40924658,6.86680822 2.7430274,5.58886301 1.42552055,6.45193151 C1.10824658,6.66041096 0.959890411,6.98263014 0.959890411,7.46673973 C0.959890411,7.99327397 1.13271233,8.37353425 1.49058904,8.62860274 C2.79273973,9.55908219 6.15105479,8.7079863 7.33556164,8.30143836 C7.54690411,8.23012329 7.77880822,8.3420411 7.85194521,8.55442466 C7.9240411,8.76706849 7.81134247,8.99767123 7.59869863,9.07106849 C7.46673973,9.11557534 5.27757534,9.85579452 3.31146575,9.85579452 L3.31146575,9.85579452 Z" id="Fill-1"></path>
                        <path d="M8.27983562,7.05993151 C8.20279452,7.05993151 8.12445205,7.03754795 8.05417808,6.99173973 L5.61410959,5.3650274 C5.53889041,5.31427397 5.48293151,5.24113699 5.45456164,5.15472603 L4.26406849,1.58610959 L3.51890411,0.840684932 C3.36013699,0.682178082 3.36013699,0.423986301 3.51890411,0.265479452 C3.67741096,0.106712329 3.93560274,0.106712329 4.09410959,0.265479452 L4.90746575,1.07883562 C4.95119178,1.12334247 4.98580822,1.17721918 5.00506849,1.23838356 L6.18150685,4.76535616 L8.50575342,6.31476712 C8.69263014,6.43865753 8.74364384,6.69086301 8.61845205,6.878 C8.54010959,6.99694521 8.4110137,7.05993151 8.27983562,7.05993151 L8.27983562,7.05993151 Z" id="Fill-2"></path>
                        <path d="M2.99315068,15.6003014 C2.76853425,15.6003014 2.58660274,15.4181096 2.58660274,15.1934932 C2.58660274,14.9688767 2.76853425,14.7866849 2.99315068,14.7866849 C4.47254795,14.7866849 4.96967123,11.4590822 5.02641096,10.2940959 C5.03473973,10.1353288 5.13442466,9.9950411 5.28173973,9.93621918 L7.315,9.12286301 C7.52243836,9.03931507 7.76032877,9.14108219 7.84387671,9.34956164 C7.92716438,9.5580411 7.82539726,9.79489041 7.61717808,9.87817808 L5.82154795,10.5960137 C5.73513699,11.7347123 5.26950685,15.6003014 2.99315068,15.6003014 L2.99315068,15.6003014 Z" id="Fill-3"></path>
                        <path d="M3.80650685,18.853726 C3.6599726,18.853726 3.51890411,18.7743425 3.44654795,18.636137 C3.34191781,18.4367671 3.41817808,18.1908082 3.61650685,18.0869589 C4.2060274,17.7780137 5.02641096,16.8366027 5.02641096,16.0068493 C5.02641096,14.8762192 6.61252055,10.4882603 7.69135616,9.94949315 C7.89254795,9.84980822 8.13668493,9.9310137 8.23715068,10.1314247 C8.33787671,10.3326164 8.25563014,10.5767534 8.05521918,10.6772192 C7.39854795,11.0056849 5.8400274,14.974863 5.8400274,16.0068493 C5.8400274,17.2553836 4.73984932,18.4154247 3.99572603,18.8068767 C3.93560274,18.8383699 3.87053425,18.853726 3.80650685,18.853726 L3.80650685,18.853726 Z" id="Fill-4"></path>
                        <path d="M9.5,17.2270137 C9.12676712,17.2270137 8.79023288,17.0703288 8.52917808,16.7764795 C7.4349863,15.5422603 7.78583562,11.8802055 7.86730137,11.1613288 L7.07632877,8.39279452 C7.04457534,8.2829589 7.05993151,8.16713699 7.1179726,8.07057534 L8.33787671,6.03705479 C8.41205479,5.91524658 8.54323288,5.8400274 8.68664384,5.8400274 L10.3133562,5.8400274 C10.4567671,5.8400274 10.5879452,5.91524658 10.6621233,6.03705479 L11.8820274,8.07057534 C11.9400685,8.16713699 11.9554247,8.284 11.9247123,8.39175342 L11.1337397,11.1602877 C11.2152055,11.8802055 11.5660548,15.5422603 10.471863,16.7754384 C10.2097671,17.0703288 9.87323288,17.2270137 9.5,17.2270137 L9.5,17.2270137 Z M7.90686301,8.33787671 L8.67128767,11.0158356 C8.68560274,11.0676301 8.68976712,11.1225479 8.68456164,11.1764247 C8.49846575,12.7260959 8.45682192,15.4691233 9.1379589,16.2377123 C9.35554795,16.4836712 9.64549315,16.4826301 9.86308219,16.2377123 C10.5452603,15.4680822 10.5033562,12.7250548 10.3164795,11.1764247 C10.3102329,11.1225479 10.3143973,11.0686712 10.3297534,11.0158356 L11.0941781,8.33787671 L10.0835342,6.65312329 L8.91750685,6.65312329 L7.90686301,8.33787671 Z" id="Fill-5"></path>
                        <path d="M10.3133562,6.65312329 C10.2097671,6.65312329 10.1048767,6.61356164 10.0257534,6.53417808 C9.8669863,6.37567123 9.8669863,6.11747945 10.0257534,5.9589726 C10.2412603,5.74424658 10.3133562,5.50843836 10.3133562,5.02641096 C10.3133562,4.81610959 10.1639589,4.21331507 9.5,4.21331507 C8.8360411,4.21331507 8.68664384,4.81610959 8.68664384,5.02641096 C8.68664384,5.50843836 8.75873973,5.74424658 8.97424658,5.9589726 C9.1330137,6.11747945 9.1330137,6.37567123 8.97424658,6.53417808 C8.81573973,6.69294521 8.55754795,6.69294521 8.3990411,6.53417808 C7.93627397,6.07271233 7.87328767,5.53680822 7.87328767,5.02641096 C7.87328767,4.35047945 8.37847945,3.39969863 9.5,3.39969863 C10.6215205,3.39969863 11.1267123,4.35047945 11.1267123,5.02641096 C11.1267123,5.53680822 11.063726,6.07271233 10.6009589,6.53417808 C10.5218356,6.61356164 10.4169452,6.65312329 10.3133562,6.65312329 L10.3133562,6.65312329 Z" id="Fill-6"></path>
                        <path d="M15.6885342,9.85579452 C13.7213836,9.85579452 11.5324795,9.11557534 11.4013014,9.07106849 C11.1886575,8.99767123 11.0759589,8.76706849 11.1480548,8.55442466 C11.2211918,8.3420411 11.4510137,8.23012329 11.6644384,8.30143836 C12.8499863,8.70694521 16.2111644,9.557 17.509411,8.62860274 C17.8672877,8.37353425 18.0401096,7.99327397 18.0401096,7.46673973 C18.0401096,6.98263014 17.8917534,6.66041096 17.5744795,6.45193151 C16.2559315,5.58782192 12.5907534,6.86576712 11.2893836,7.43316438 C11.0829863,7.52452055 10.8440548,7.4279589 10.7545205,7.22260274 C10.6652466,7.01724658 10.759726,6.77727397 10.9650822,6.68773973 C11.484589,6.46208219 16.0992466,4.51419178 18.0208493,5.77287671 C18.4000685,6.02091781 18.853726,6.517 18.853726,7.46673973 C18.853726,8.26369863 18.5606575,8.87768493 17.9823288,9.29047945 C17.3956712,9.70952055 16.565137,9.85579452 15.6885342,9.85579452 L15.6885342,9.85579452 Z" id="Fill-7"></path>
                        <path d="M10.7201644,7.05993151 C10.5879452,7.05993151 10.4598904,6.99694521 10.3805068,6.8790411 C10.2563562,6.69190411 10.3063288,6.43969863 10.4932055,6.31580822 L12.8174521,4.76613699 L13.9938904,1.23838356 C14.0131507,1.17826027 14.0477671,1.12334247 14.0925342,1.07961644 L14.9058904,0.266260274 C15.0643973,0.107753425 15.322589,0.107753425 15.4810959,0.266260274 C15.639863,0.425027397 15.639863,0.683219178 15.4810959,0.841726027 L14.7359315,1.58610959 L13.5464795,5.15472603 C13.5181096,5.24009589 13.4621507,5.31427397 13.3858904,5.3639863 L10.9458219,6.99069863 C10.876589,7.03754795 10.7982466,7.05993151 10.7201644,7.05993151 L10.7201644,7.05993151 Z" id="Fill-8"></path>
                        <path d="M16.0068493,15.6003014 C13.7304932,15.6003014 13.264863,11.7347123 13.177411,10.5960137 L11.3817808,9.87817808 C11.1735616,9.79489041 11.0717945,9.5580411 11.1550822,9.34956164 C11.2386301,9.1400411 11.4775616,9.03931507 11.6839589,9.12286301 L13.7172192,9.93621918 C13.8655753,9.9950411 13.9642192,10.1353288 13.9725479,10.2940959 C14.0292877,11.4590822 14.5274521,14.7866849 16.0058082,14.7866849 C16.2304247,14.7866849 16.4126164,14.9688767 16.4126164,15.1934932 C16.4126164,15.4181096 16.2314658,15.6003014 16.0068493,15.6003014 L16.0068493,15.6003014 Z" id="Fill-9"></path>
                        <path d="M15.1934932,18.853726 C15.1294658,18.853726 15.0654384,18.8383699 15.004274,18.8068767 C14.2601507,18.4154247 13.1599726,17.2553836 13.1599726,16.0068493 C13.1599726,14.974863 11.6014521,11.0056849 10.9447808,10.6772192 C10.7433288,10.5767534 10.6621233,10.3326164 10.7628493,10.1314247 C10.862274,9.9299726 11.1074521,9.84980822 11.3086438,9.94949315 C12.3874795,10.4882603 13.973589,14.8762192 13.973589,16.0068493 C13.973589,16.8366027 14.7939726,17.7780137 15.3827123,18.0869589 C15.5807808,18.1908082 15.6570411,18.4378082 15.552411,18.636137 C15.4803151,18.7743425 15.3389863,18.853726 15.1934932,18.853726 L15.1934932,18.853726 Z" id="Fill-10"></path>
                        <path d="M9.5,4.21331507 C9.27538356,4.21331507 9.09345205,4.03112329 9.09345205,3.80650685 L9.09345205,2.17979452 C9.09345205,1.95517808 9.27538356,1.7729863 9.5,1.7729863 C9.72461644,1.7729863 9.90654795,1.95517808 9.90654795,2.17979452 L9.90654795,3.80650685 C9.90654795,4.03112329 9.72461644,4.21331507 9.5,4.21331507 L9.5,4.21331507 Z" id="Fill-11"></path>
                    </g>
                </g>
            </g>
        </g>
    </g>
</svg>