<?xml version="1.0" encoding="UTF-8"?>
<svg width="20px" height="19px" viewBox="0 0 20 19" version="1.1" xmlns="http://www.w3.org/2000/svg" xmlns:xlink="http://www.w3.org/1999/xlink">
    <!-- Generator: sketchtool 41.2 (35397) - http://www.bohemiancoding.com/sketch -->
    <title>1DEE810B-116E-4696-9E1A-A3388E91A204</title>
    <desc>Created with sketchtool.</desc>
    <defs></defs>
    <g id="Symbols" stroke="none" stroke-width="1" fill="none" fill-rule="evenodd">
        <g id="list-/-growth" transform="translate(-25.000000, -7.000000)" fill="#242423">
            <g id="Group-4" transform="translate(25.000000, 7.000000)">
                <g id="icon-/-growth">
                    <path d="M18.6738667,4.32338667 C18.8053333,4.04826667 19.0021333,3.61202667 19.1677333,3.14082667 C19.5802667,1.96637333 19.5749333,1.20232 19.1552,0.80256 C18.9426667,0.600653333 18.628,0.498813333 18.2208,0.498813333 C17.324,0.498813333 16.0376,1.00649333 15.4490667,1.26084 C15.0666667,0.81548 14.248,0.00101333333 13.3634667,0.00101333333 C13.2832,0.00101333333 13.2021333,0.00785333333 13.124,0.0217866667 C12.3376,0.15732 11.772,1.235 11.0584,2.74410667 C10.9250667,3.02708 10.7573333,3.38250667 10.6290667,3.61 C10.6197333,3.59606667 10.6104,3.58238667 10.6010667,3.56845333 C10.372,3.22594667 9.98746667,2.65417333 9.26666667,2.65417333 C9.124,2.65417333 8.97493333,2.67672 8.824,2.72333333 C7.9,3.00529333 7.5032,4.49464 7.1136,6.26493333 C7.0792,6.42149333 7.04053333,6.59350667 7.00426667,6.75006667 C6.7376,6.42326667 6.33013333,6.03946667 5.67386667,6.03946667 C5.56053333,6.03946667 5.44373333,6.05238667 5.32506667,6.07594667 C4.86346667,6.16993333 4.53333333,6.70750667 4.1864,7.9306 C3.9584,8.73493333 3.728,9.83338667 3.50213333,11.19708 C3.17386667,13.1784 2.94906667,15.1594667 2.8896,15.6967867 L0.122933333,18.3241067 C0.0469333333,18.3963067 0,18.4943467 0,18.6042933 C0,18.8219067 0.1864,19 0.416533333,19 C0.5312,19 0.635466667,18.9554133 0.7104,18.8842267 L0.711466667,18.8842267 L3.4792,16.2538667 C4.0448,16.1983867 6.13013333,15.9848267 8.21466667,15.6729733 C9.65013333,15.4584 10.8061333,15.23952 11.6530667,15.02292 C12.9416,14.6933333 13.5072,14.3797067 13.6053333,13.9411867 C13.7021333,13.5148267 13.6176,13.1249467 13.3552,12.78244 C13.2186667,12.6033333 13.0509333,12.46096 12.8946667,12.3459467 C13.0594667,12.3114933 13.2405333,12.2757733 13.4042667,12.24208 C15.2688,11.87196 16.8365333,11.495 17.1322667,10.6172 C17.2728,10.2017333 17.2082667,9.80982667 16.9448,9.48226667 C16.7437333,9.23172 16.4666667,9.06350667 16.2426667,8.92797333 C16.2290667,8.91910667 16.2146667,8.91125333 16.1989333,8.90137333 C16.4386667,8.78053333 16.8125333,8.62118667 17.1104,8.49350667 C18.6989333,7.81584 19.8333333,7.27826667 19.976,6.53118667 C20.1552,5.60601333 19.1853333,4.71833333 18.6738667,4.32338667 L18.6738667,4.32338667 Z M19.1594667,6.39084 C19.1552,6.41338667 19.0978667,6.62036 18.4136,7.00517333 C17.9290667,7.27826667 17.3146667,7.54072 16.772,7.77226667 C15.8405333,8.16898667 15.4218667,8.35594667 15.2738667,8.6222 C15.1448,8.85172 15.1917333,9.10910667 15.3989333,9.31304 C15.5061333,9.41893333 15.6490667,9.50506667 15.7989333,9.59601333 C16.3021333,9.90077333 16.4509333,10.0560667 16.3426667,10.37476 C16.3197333,10.44316 16.1749333,10.6876267 15.2832,10.9794667 C14.6448,11.1882133 13.8645333,11.3435067 13.2376,11.4673867 C12.2333333,11.6672667 11.8946667,11.7344 11.7605333,12.01256 C11.7146667,12.10756 11.6365333,12.3550667 11.8978667,12.6101733 C11.9802667,12.69048 12.0824,12.7606533 12.2010667,12.84096 C12.3698667,12.95572 12.5613333,13.0851733 12.6842667,13.2465467 C12.8,13.3990533 12.8365333,13.5543467 12.8,13.74536 C12.7061333,13.84036 12.0437333,14.3133333 7.8584,14.9258933 C6.56986667,15.1138667 5.3032,15.2633333 4.424,15.36036 L12.2677333,7.90881333 C12.3437333,7.83762667 12.3896,7.73756 12.3896,7.62862667 C12.3896,7.41 12.2032,7.23292 11.9728,7.23292 C11.8584,7.23292 11.7541333,7.27750667 11.6792,7.34869333 L3.83226667,14.7992267 C3.93333333,13.965 4.09066667,12.76268 4.2896,11.5395867 C4.9344,7.56149333 5.43226667,6.93094667 5.53333333,6.84202667 C5.5824,6.83316 5.63013333,6.82910667 5.676,6.82910667 C6.01973333,6.82910667 6.2376,7.08142667 6.48533333,7.41101333 C6.65626667,7.63850667 6.83333333,7.87410667 7.1416,7.87410667 C7.21573333,7.87410667 7.28853333,7.85916 7.35733333,7.82952 C7.65013333,7.70184 7.7208,7.38036 7.9312,6.42630667 C8.0624,5.83072 8.22506667,5.08946667 8.4448,4.48273333 C8.752,3.63584 9.00933333,3.49828 9.08133333,3.47649333 C9.14986667,3.45572 9.21253333,3.44482667 9.2688,3.44482667 C9.51466667,3.44482667 9.68533333,3.67130667 9.90106667,3.99304 C10.0792,4.25828 10.2813333,4.55898667 10.6458667,4.55898667 C10.7426667,4.55898667 10.8365333,4.53618667 10.9250667,4.49084 C11.2053333,4.34922667 11.4021333,3.95149333 11.8208,3.0666 C12.0645333,2.55106667 12.3405333,1.96738667 12.628,1.50708 C13.0333333,0.857026667 13.2509333,0.80256 13.2749333,0.798506667 C13.3042667,0.793693333 13.3344,0.790653333 13.3656,0.790653333 C13.9061333,0.790653333 14.6448,1.52 14.9824,1.97904 L15.1885333,2.26024 L15.5104,2.10672 C15.9906667,1.87922667 17.4146667,1.28744 18.2229333,1.28744 C18.4208,1.28744 18.5312,1.32493333 18.5677333,1.35964 C18.5792,1.36952 18.8218667,1.62082667 18.3813333,2.88065333 C18.128,3.60214667 17.7853333,4.25828 17.7824,4.26512 L17.6208,4.57190667 L17.9176,4.76773333 C18.3656,5.06666667 19.2613333,5.85428 19.1594667,6.39084 L19.1594667,6.39084 Z" id="Page-1"></path>
                </g>
            </g>
        </g>
    </g>
</svg>