<?xml version="1.0" encoding="UTF-8"?>
<svg width="20px" height="19px" viewBox="0 0 20 19" version="1.1" xmlns="http://www.w3.org/2000/svg" xmlns:xlink="http://www.w3.org/1999/xlink">
    <!-- Generator: sketchtool 41.2 (35397) - http://www.bohemiancoding.com/sketch -->
    <title>1C1A08B6-88EC-4B89-9635-3491F143C90F</title>
    <desc>Created with sketchtool.</desc>
    <defs></defs>
    <g id="Symbols" stroke="none" stroke-width="1" fill="none" fill-rule="evenodd">
        <g id="list-/-recommendation" transform="translate(-25.000000, -7.000000)" fill="#242423">
            <g id="Group-4" transform="translate(25.000000, 7.000000)">
                <g id="icon-/-recommendation">
                    <path d="M6.13636364,0 C4.85909091,0 3.86363636,1.13636364 3.86363636,2.5 L3.86363636,3.63636364 L2.27272727,3.63636364 C1.02151515,3.63636364 0,4.65787879 0,5.90909091 L0,15.9090909 C0,17.160303 1.02151515,18.1818182 2.27272727,18.1818182 L17.7272727,18.1818182 C18.9784848,18.1818182 20,17.160303 20,15.9090909 L20,5.90909091 C20,4.65787879 18.9784848,3.63636364 17.7272727,3.63636364 L16.1363636,3.63636364 L16.1363636,2.5 C16.1363636,1.13636364 15.1409091,0 13.8636364,0 L6.13636364,0 Z M6.13636364,0.909090909 L13.8636364,0.909090909 C14.6012121,0.909090909 15.2272727,1.56363636 15.2272727,2.5 L15.2272727,3.63636364 L4.77272727,3.63636364 L4.77272727,2.5 C4.77272727,1.56363636 5.39878788,0.909090909 6.13636364,0.909090909 L6.13636364,0.909090909 Z M2.27272727,4.54545455 L17.7272727,4.54545455 C18.4909091,4.54545455 19.0909091,5.14545455 19.0909091,5.90909091 L19.0909091,15.9090909 C19.0909091,16.6727273 18.4909091,17.2727273 17.7272727,17.2727273 L2.27272727,17.2727273 C1.50909091,17.2727273 0.909090909,16.6727273 0.909090909,15.9090909 L0.909090909,5.90909091 C0.909090909,5.14545455 1.50909091,4.54545455 2.27272727,4.54545455 L2.27272727,4.54545455 Z M9.95030303,6.35666667 L9.95030303,6.35666667 C9.71575758,6.38242424 9.54060606,6.58272727 9.54545455,6.81818182 L9.54545455,10.4545455 L5.90909091,10.4545455 C5.89484848,10.4533333 5.88060606,10.4533333 5.86636364,10.4545455 C5.61545455,10.4663636 5.42151515,10.6793939 5.43333333,10.930303 C5.44515152,11.1812121 5.65818182,11.3754545 5.90909091,11.3636364 L9.54545455,11.3636364 L9.54545455,15 C9.54181818,15.2533333 9.74666667,15.4606061 10,15.4606061 C10.2533333,15.4606061 10.4581818,15.2533333 10.4545455,15 L10.4545455,11.3636364 L14.0909091,11.3636364 C14.3442424,11.3672727 14.5515152,11.1624242 14.5515152,10.9090909 C14.5515152,10.6557576 14.3442424,10.4509091 14.0909091,10.4545455 L10.4545455,10.4545455 L10.4545455,6.81818182 C10.4581818,6.56121212 10.249697,6.3530303 9.9930303,6.35666667 C9.97878788,6.35545455 9.96454545,6.35545455 9.95030303,6.35666667 L9.95030303,6.35666667 Z" id="icon_recommendation"></path>
                </g>
            </g>
        </g>
    </g>
</svg>