<?xml version="1.0" encoding="UTF-8"?>
<svg width="19px" height="17px" viewBox="0 0 19 17" version="1.1" xmlns="http://www.w3.org/2000/svg" xmlns:xlink="http://www.w3.org/1999/xlink">
    <!-- Generator: sketchtool 41.2 (35397) - http://www.bohemiancoding.com/sketch -->
    <title>5565DE47-F30E-4C40-9292-0CB834515A97</title>
    <desc>Created with sketchtool.</desc>
    <defs></defs>
    <g id="Web" stroke="none" stroke-width="1" fill="none" fill-rule="evenodd">
        <g id="11-Icons-and-Long-Name" transform="translate(-242.000000, -206.000000)" fill="#7D7B7B">
            <g id="icon-/-note_grey" transform="translate(242.000000, 206.000000)">
                <g id="icon_note">
                    <path d="M43.5533333,32.0020007 C43.5533333,33.65775 42.2197425,35 41.817037,35 L41.817037,35 L41.817037,10.0909817 C41.817037,8.98607456 40.9270491,8.09037037 39.8095189,8.09037037 L3.89418477,8.09037037 C2.78546314,8.09037037 1.88666667,8.9805109 1.88666667,10.088599 L1.88666667,31.5274074 L0.15037037,31.5274074 L0.15037037,9.35309083 C0.15037037,7.69677961 1.49692886,6.35407407 3.1507563,6.35407407 L40.5529474,6.35407407 C42.2100148,6.35407407 43.5533333,7.69730475 43.5533333,9.35207334 L43.5533333,32.0020007 Z" id="Fill-1"></path>
                    <path d="M43.5533333,36.3417912 C43.5533333,37.9976562 42.2067748,39.34 40.5529474,39.34 L3.1507563,39.34 C1.49368891,39.34 0.15037037,37.9969675 0.15037037,36.3417912 L0.15037037,31.5274074 L1.88666667,31.5274074 L1.88666667,35.5977532 C1.88666667,36.7060182 2.77665455,37.6044444 3.89418477,37.6044444 L39.8095189,37.6044444 C40.9182406,37.6044444 41.817037,36.7077567 41.817037,35.5977532 L41.817037,31.5274074 L43.5533333,31.5274074 L43.5533333,36.3417912 Z" id="Fill-2"></path>
                    <polygon id="Fill-3" points="14.0392593 10.6940741 15.7755556 10.6940741 15.7755556 0.277777778 14.0392593 0.277777778"></polygon>
                    <polygon id="Fill-4" points="27.9281481 10.6940741 29.6644444 10.6940741 29.6644444 0.277777778 27.9281481 0.277777778"></polygon>
                    <polygon id="Fill-5" points="7.96296296 25.4518519 35.7407407 25.4518519 35.7407407 23.7155556 7.96296296 23.7155556"></polygon>
                    <polygon id="Fill-6" points="7.96296296 18.5074074 35.7407407 18.5074074 35.7407407 16.7711111 7.96296296 16.7711111"></polygon>
                    <polygon id="Fill-7" points="7.96296296 32.3962963 35.7407407 32.3962963 35.7407407 30.66 7.96296296 30.66"></polygon>
                </g>
            </g>
        </g>
    </g>
</svg>