<?xml version="1.0" encoding="UTF-8"?>
<svg width="21px" height="15px" viewBox="0 0 21 15" version="1.1" xmlns="http://www.w3.org/2000/svg" xmlns:xlink="http://www.w3.org/1999/xlink">
    <!-- Generator: sketchtool 41.2 (35397) - http://www.bohemiancoding.com/sketch -->
    <title>C936D8A8-E46E-499A-AFEF-41C106D05BBF</title>
    <desc>Created with sketchtool.</desc>
    <defs></defs>
    <g id="Web" stroke="none" stroke-width="1" fill="none" fill-rule="evenodd">
        <g id="11-Icons-and-Long-Name" transform="translate(-215.000000, -208.000000)" fill="#7D7B7B">
            <g id="Group" transform="translate(0.000000, 170.000000)">
                <g id="Page-1" transform="translate(215.000000, 38.000000)">
                    <path d="M19.6177211,1.50058824 L15.0388633,1.50058824 L13.6740425,0.198823529 C13.607695,0.132058824 13.4976051,0.0885294118 13.3875153,0.0885294118 L10.128268,0.0885294118 L10.0848192,0.0885294118 L10.0628012,0.0885294118 L6.80384749,0.0885294118 C6.69375763,0.0885294118 6.60539216,0.132058824 6.51702669,0.198823529 L5.15249946,1.50058824 L0.638814815,1.50058824 C0.418635076,1.50058824 0.220179739,1.67735294 0.220179739,1.91970588 L0.220179739,14.5370588 C0.220179739,14.7576471 0.396910675,14.9564706 0.638814815,14.9564706 L19.6177211,14.9564706 C19.8379009,14.9564706 20.0363562,14.7794118 20.0363562,14.5370588 L20.0363562,1.89676471 C20.0363562,1.67617647 19.8596253,1.50058824 19.6177211,1.50058824 L19.6177211,1.50058824 Z M19.1990861,14.0958824 L1.05744989,14.0958824 L1.05744989,2.31617647 L5.35095479,2.31617647 C5.50449346,2.31617647 5.63748203,2.22764706 5.7029488,2.11735294 L6.98028486,0.882352941 L10.0848192,0.882352941 L10.1065436,0.882352941 L10.1499924,0.882352941 L13.2325087,0.882352941 L14.5101383,2.11735294 C14.5764858,2.22764706 14.7085937,2.31617647 14.8621324,2.31617647 L19.2222783,2.31617647 L19.2222783,14.0958824 L19.1990861,14.0958824 Z" id="Fill-1"></path>
                    <path d="M10.128268,12.3747059 C7.77293192,12.3747059 5.85648747,10.4561765 5.85648747,8.095 C5.85648747,5.73529412 7.77293192,3.83852941 10.128268,3.83852941 C12.483604,3.83852941 14.4000485,5.75705882 14.4000485,8.11823529 C14.4000485,10.4779412 12.483604,12.3747059 10.128268,12.3747059 L10.128268,12.3747059 Z M10.128268,4.65411765 C8.2350158,4.65411765 6.69375763,6.19823529 6.69375763,8.095 C6.69375763,9.99205882 8.2350158,11.5361765 10.128268,11.5361765 C12.0215202,11.5361765 13.5627783,9.99205882 13.5627783,8.095 C13.5627783,6.19823529 12.0215202,4.65411765 10.128268,4.65411765 L10.128268,4.65411765 Z" id="Fill-2"></path>
                    <path d="M3.61124129,4.65411765 L3.12713943,4.65411765 C2.90695969,4.65411765 2.70879793,4.47735294 2.70879793,4.23470588 C2.70879793,3.99235294 2.88523529,3.81558824 3.12713943,3.81558824 L3.61124129,3.81558824 C3.83142102,3.81558824 4.02987636,3.99235294 4.02987636,4.23470588 C4.02987636,4.47735294 3.85314542,4.65411765 3.61124129,4.65411765 L3.61124129,4.65411765 Z" id="Fill-3"></path>
                </g>
            </g>
        </g>
    </g>
</svg>