<?xml version="1.0" encoding="UTF-8"?>
<svg width="18px" height="18px" viewBox="0 0 18 18" version="1.1" xmlns="http://www.w3.org/2000/svg" xmlns:xlink="http://www.w3.org/1999/xlink">
    <!-- Generator: sketchtool 41.2 (35397) - http://www.bohemiancoding.com/sketch -->
    <title>64E749A1-EC8F-44C8-8DC1-2D7EA321B3E8</title>
    <desc>Created with sketchtool.</desc>
    <defs></defs>
    <g id="Web" stroke="none" stroke-width="1" fill="none" fill-rule="evenodd">
        <g id="11-Icons-and-Long-Name" transform="translate(-267.000000, -206.000000)" fill="#7D7B7B">
            <g id="Group" transform="translate(0.000000, 170.000000)">
                <g id="Group-4" transform="translate(267.000000, 36.000000)">
                    <g id="icon-/-position-grey">
                        <path d="M26,17.3333333 C21.2213926,17.3333333 17.3333333,21.2213926 17.3333333,26 C17.3333333,30.7786074 21.2213926,34.6666667 26,34.6666667 C30.7786074,34.6666667 34.6666667,30.7786074 34.6666667,26 C34.6666667,21.2213926 30.7786074,17.3333333 26,17.3333333 L26,17.3333333 Z M26,32.3555556 C22.4971259,32.3555556 19.6444444,29.5028741 19.6444444,26 C19.6444444,22.4971259 22.4971259,19.6444444 26,19.6444444 C29.5028741,19.6444444 32.3555556,22.4971259 32.3555556,26 C32.3555556,29.5028741 29.5028741,32.3555556 26,32.3555556 L26,32.3555556 Z M44.4496,24.8444444 C43.8749037,15.5699556 36.4300444,8.1250963 27.1555556,7.5504 L27.1555556,0 L24.8444444,0 L24.8444444,7.5504 C15.5699556,8.1250963 8.1250963,15.5699556 7.5504,24.8444444 L0,24.8444444 L0,27.1555556 L7.5504,27.1555556 C8.1250963,36.4300444 15.5699556,43.8749037 24.8444444,44.4496 L24.8444444,52 L27.1555556,52 L27.1555556,44.4496 C36.4300444,43.8749037 43.8749037,36.4300444 44.4496,27.1555556 L52,27.1555556 L52,24.8444444 L44.4496,24.8444444 Z M26,42.1777778 C17.0806519,42.1777778 9.82222222,34.9193481 9.82222222,26 C9.82222222,17.0806519 17.0806519,9.82222222 26,9.82222222 C34.9193481,9.82222222 42.1777778,17.0806519 42.1777778,26 C42.1777778,34.9193481 34.9193481,42.1777778 26,42.1777778 L26,42.1777778 Z" id="Page-1"></path>
                    </g>
                </g>
            </g>
        </g>
    </g>
</svg>